<?xml version="1.0" standalone="no"?><!DOCTYPE svg PUBLIC "-//W3C//DTD SVG 1.1//EN" "http://www.w3.org/Graphics/SVG/1.1/DTD/svg11.dtd"><svg t="1741629922013" class="icon" viewBox="0 0 1024 1024" version="1.1" xmlns="http://www.w3.org/2000/svg" p-id="2138" xmlns:xlink="http://www.w3.org/1999/xlink" width="200" height="200"><path d="M921.1 61.4H102.9c-45.5 0-82.4 36.9-82.4 82.4v736.3c0 45.5 36.9 82.4 82.4 82.4h818.2c45.5 0 82.4-36.9 82.4-82.4V143.8c0-45.5-36.9-82.4-82.4-82.4z m0.4 777.8c0 22.9-18.6 41.4-41.4 41.4H143.8c-22.9 0-41.4-18.6-41.4-41.4V184.8c0-22.9 18.6-41.4 41.4-41.4h736.3c22.9 0 41.4 18.6 41.4 41.4v654.4z" p-id="2139"></path><path d="M827.2 373.5c-0.1-0.2-0.2-0.5-0.2-0.7-1.6-7.4-5.2-14.4-10.9-20.1-5.7-5.7-12.7-9.3-20.1-10.9-0.2-0.1-0.5-0.2-0.7-0.2-2.7-0.5-5.4-0.8-8.1-0.8h-164c-22.5 0-41 18.4-41 41 0 22.5 18.4 41 41 41h65L526.5 584.4 410.7 468.6c-15.9-15.9-42-15.9-57.9 0L207.9 613.4c-15.9 15.9-15.9 42 0 57.9 15.9 15.9 42 15.9 57.9 0l115.9-115.9L497 670.8c0.2 0.2 0.3 0.4 0.4 0.5 8 8 18.5 12 29 11.9 10.5 0 21-4 29-11.9 0.2-0.2 0.3-0.4 0.4-0.5L746 480.6v65c0 22.5 18.4 41 41 41 22.5 0 41-18.4 41-41V381.7c0-2.7-0.3-5.5-0.8-8.2z" p-id="2140"></path></svg>