<?xml version="1.0" standalone="no"?><!DOCTYPE svg PUBLIC "-//W3C//DTD SVG 1.1//EN" "http://www.w3.org/Graphics/SVG/1.1/DTD/svg11.dtd"><svg t="1741629941182" class="icon" viewBox="0 0 1024 1024" version="1.1" xmlns="http://www.w3.org/2000/svg" p-id="2435" xmlns:xlink="http://www.w3.org/1999/xlink" width="200" height="200"><path d="M923.7 555.7l-1.6-0.5c-13-4.1-22.2-8.9-26.2-11.5-6.8-15.5-7-36.6-0.4-52 3.7-2.2 12.4-6.7 30.9-13 22.5-8.5 40.7-25.7 49.9-47.1 8.8-20.5 9-43.1 0.8-62.9L948.5 295c-9-21-26.4-37.7-47.8-45.9-9.8-3.7-19.9-5.6-30.2-5.6-12.5 0-25.1 2.8-37.3 8.5-14.7 7.3-23 9.9-26.6 10.8-16.9-6.6-32.5-22.5-37.9-39.1 0.9-3.5 3.6-11 11.3-26.6 11.1-21 12.5-45.8 4.1-68.2-8.4-22.1-25.7-39.5-45.9-47.1L669.3 52c-11.1-5.3-22.9-8-34.8-8-10.3 0-20.7 2-30.6 6.1-22.3 9.1-39.9 27.5-48.7 51.8-4.1 13-8.9 22.2-11.5 26.2-8 3.5-17.3 5.2-26.7 5.2-9 0-17.9-1.6-25.4-4.8-2.2-3.7-6.7-12.4-12.9-30.9-8.5-22.5-25.7-40.7-47.1-49.9-10.5-4.5-21.6-6.7-32.5-6.7-10.4 0-20.7 2-30.3 6L295 75.5c-21 9-37.8 26.4-45.9 47.9-8.3 21.7-7.4 45.4 2.9 67.4 7.4 14.7 10 23 10.8 26.6-6.6 16.9-22.5 32.5-39.1 37.9-3.5-0.9-11.1-3.5-26.6-11.3-12-6.3-25.2-9.5-38.5-9.5-10 0-20 1.8-29.6 5.4-22.1 8.3-39.6 25.7-47.2 45.9L52 354.7c-10 20.7-10.6 43.9-1.9 65.4 9.1 22.3 27.4 39.9 51.9 48.8 13 4.1 22.2 8.9 26.2 11.5 6.8 15.6 7 36.7 0.4 52-3.7 2.2-12.4 6.7-30.9 13-22.5 8.5-40.7 25.7-49.9 47.1-8.8 20.5-9 43.2-0.7 62.8L75.5 729c9 21 26.4 37.7 47.8 45.9 9.8 3.7 19.9 5.6 30.2 5.6 12.5 0 25.1-2.8 37.3-8.5 14.7-7.3 22.9-9.9 26.6-10.8 16.7 6.5 32.5 22.8 37.9 39.1-0.9 3.5-3.6 11.1-11.3 26.6-11.1 20.9-12.5 45.8-4.1 68.2 8.3 22.1 25.7 39.5 45.9 47.1l68.9 29.8c11.1 5.3 22.9 8 34.8 8 10.3 0 20.7-2 30.6-6.1 22.3-9.1 39.9-27.4 48.7-51.8 4.1-13 8.9-22.2 11.5-26.2 8-3.5 17.4-5.2 26.7-5.2 8.9 0 17.8 1.6 25.3 4.8 2.2 3.7 6.7 12.4 13 30.9 8.5 22.5 25.7 40.7 47.1 49.9 10.5 4.5 21.6 6.8 32.6 6.8 10.4 0 20.7-2 30.3-6l73.8-28.5c21-9 37.8-26.4 45.9-47.8 8.3-21.7 7.4-45.4-2.9-67.4-7.4-14.7-10-23-10.8-26.6 6.5-17 22.5-32.5 39.1-37.9 3.5 0.9 11 3.6 26.6 11.3 12 6.3 25.2 9.5 38.5 9.5 10 0 20-1.8 29.6-5.4 22.1-8.4 39.5-25.7 47.1-45.9l29.9-68.9c10-20.7 10.6-44 1.9-65.4-9.1-22.5-27.4-40.1-50.3-48.4z m-26.2 79.6l-0.6 1.5-29.9 68.9-0.7 1.5-1.3 0.4-0.8-0.4-0.8-0.4c-18.2-9.1-31.3-14.4-42.7-17.3l-23.2-6-22.7 7.4c-40.1 13.1-74.6 46.2-90.1 86.3l-9.3 24 6.2 25c3 12.1 8.4 26 16.4 42.2 0.8 1.8 0.5 2.4 0.3 3-0.2 0.6-0.8 1.2-1.3 1.5l-71.4 27.6-1 0.4c-0.5-0.2-1.7-1.3-2.6-3.1-6.5-19-12.9-33.6-19.6-44.6l-13.7-22.8-24.4-10.4c-17.4-7.4-37.3-11.4-57.4-11.4-20.8 0-41.4 4.2-59.5 12l-22.7 9.9-13.4 20.8c-7.5 11.6-14.5 27-20 43.5-0.6 1.3-1.3 2.4-2 2.9l-0.8-0.4-1.5-0.7-68.7-29.6-1.6-0.7-0.4-1.2 0.4-0.8 0.4-0.8c9.1-18.2 14.5-31.5 17.4-42.9l5.9-23.2-7.5-22.8C320 735.5 286.2 700.3 247 685l-24.2-9.5-25.2 6.2c-12.1 3-25.9 8.4-42.3 16.4-0.7 0.3-1.2 0.4-1.9 0.4-0.3 0-0.7 0-1.1-0.1-0.6-0.2-1.2-0.8-1.5-1.3l-27.6-71.4-0.4-1c0.3-0.6 1.4-1.8 3.1-2.6 19-6.5 33.6-13 44.6-19.6l22.8-13.7 10.4-24.4c15.3-36.1 15-80.9-0.8-117l-9.8-22.3-20.4-13.3c-11.6-7.6-27.1-14.7-43.8-20.2-1.4-0.6-2.4-1.3-3-2.1l0.4-0.8 0.6-1.5 29.8-68.9 0.7-1.5 1.2-0.4 0.8 0.4 0.8 0.4c18.5 9.2 31.9 14.6 43.4 17.5l22.9 5.7 22.4-7.4c39.9-13.1 74.4-46.1 89.9-86.1l9.3-24.1-6.2-25.1c-3-12.2-8.4-26-16.4-42.3-0.8-1.8-0.5-2.4-0.3-2.9 0.2-0.6 0.8-1.2 1.3-1.6l71.4-27.6 0.9-0.4h0.1c0.6 0.3 1.8 1.4 2.6 3.1 6.5 19 12.9 33.6 19.5 44.6l13.7 22.9 24.6 10.4c17.4 7.4 37.2 11.2 57.3 11.2 20.9 0 41.6-4.2 59.7-12.2l22.4-9.9 13.3-20.5c7.5-11.6 14.6-27.1 20.1-43.7 0.6-1.3 1.2-2.4 2-2.9l0.8 0.4 1.5 0.6 68.9 29.8 1.5 0.7 0.4 1.3-0.4 0.8-0.4 0.8c-9.1 18.2-14.4 31.3-17.4 42.8l-6 23.2 7.5 22.8c13.1 39.9 46.1 74.4 86.1 89.9l24.1 9.3 25.1-6.2c12.1-3 25.9-8.3 42.3-16.4 1.2-0.5 1.9-0.6 2-0.6 0.1 0 0.4 0 1 0.2s1.2 0.8 1.5 1.3l27.6 71.4 0.4 1c-0.3 0.5-1.3 1.8-3.1 2.6-19.2 6.6-33.9 13.1-44.9 19.8L830.1 435l-10.3 24.2c-15.5 36.2-15.2 81.2 0.8 117.3l9.9 22.3 20.5 13.3c11.9 7.7 27.7 14.9 44.7 20.4 0.9 0.4 1.5 1.1 1.9 1.7l-0.1 1.1z" p-id="2436"></path><path d="M512 328.8c-101.2 0-183.2 82-183.2 183.2s82 183.2 183.2 183.2 183.2-82 183.2-183.2-82-183.2-183.2-183.2z m0 284.4c-55.8 0-101.2-45.4-101.2-101.2 0-55.8 45.4-101.2 101.2-101.2S613.2 456.2 613.2 512c0 55.8-45.4 101.2-101.2 101.2z" p-id="2437"></path></svg>